<?xml version="1.0" encoding="UTF-8"?>
<svg width="8px" height="8px" viewBox="0 0 8 8" version="1.1" xmlns="http://www.w3.org/2000/svg" xmlns:xlink="http://www.w3.org/1999/xlink">
    <!-- Generator: Sketch 54.1 (76490) - https://sketchapp.com -->
    <title>形状结合</title>
    <desc>Created with Sketch.</desc>
    <g id="组件" stroke="none" stroke-width="1" fill="none" fill-rule="evenodd">
        <g id="卡备份-6" transform="translate(-123.000000, -153.000000)" fill="#FF5675">
            <path d="M126.707107,155 L125.12132,155 C124.569036,155 124.12132,154.552285 124.12132,154 C124.12132,153.447715 124.569036,153 125.12132,153 L129.12132,153 C129.673605,153 130.12132,153.447715 130.12132,154 L130.12132,158 C130.12132,158.552285 129.673605,159 129.12132,159 C128.569036,159 128.12132,158.552285 128.12132,158 L128.12132,156.414214 L124.707107,159.828427 C124.316582,160.218951 123.683418,160.218951 123.292893,159.828427 C122.902369,159.437903 122.902369,158.804738 123.292893,158.414214 L126.707107,155 Z" id="形状结合"></path>
        </g>
    </g>
</svg>