<svg xmlns="http://www.w3.org/2000/svg" width="7" height="7" viewBox="0 0 7 7">
  <path fill="#01FFB6" fill-rule="evenodd" d="M126.585786,154.585786 L125,154.585786 C124.447715,154.585786 124,154.138071 124,153.585786 C124,153.033502 124.447715,152.585786 125,152.585786 L129,152.585786 C129.276142,152.585786 129.526142,152.697715 129.707107,152.87868 C129.888071,153.059644 130,153.309644 130,153.585786 L130,157.585786 C130,158.138071 129.552285,158.585786 129,158.585786 C128.447715,158.585786 128,158.138071 128,157.585786 L128,156 L124.707107,159.292893 C124.316582,159.683418 123.683418,159.683418 123.292893,159.292893 C122.902369,158.902369 122.902369,158.269204 123.292893,157.87868 L126.585786,154.585786 Z" transform="matrix(1 0 0 -1 -123 159.586)"/>
</svg>
